<svg width="32" height="33" viewBox="0 0 32 33" fill="none" xmlns="http://www.w3.org/2000/svg">
<path d="M25.375 24H10.375C9.85806 24 9.4375 23.5794 9.4375 23.0625C9.4375 22.5456 9.85806 22.125 10.375 22.125H27.7071L32 7.125H7.87781L7.481 5.5135L7.48031 5.51369C7.17756 4.28731 6.06856 3.375 4.75 3.375H2.8125C1.26169 3.375 0 4.63669 0 6.1875H1.875C1.875 5.67056 2.29556 5.25 2.8125 5.25H4.75C5.26694 5.25 5.6875 5.67056 5.6875 6.1875H5.716L9.238 20.491C8.25212 20.9286 7.5625 21.9163 7.5625 23.0625C7.5625 24.6133 8.82419 25.875 10.375 25.875H11.4738C11.3697 26.1684 11.3125 26.4839 11.3125 26.8125C11.3125 28.3633 12.5742 29.625 14.125 29.625C15.6758 29.625 16.9375 28.3633 16.9375 26.8125C16.9375 26.4839 16.8803 26.1684 16.7763 25.875H22.7238C22.6197 26.1684 22.5626 26.4839 22.5626 26.8125C22.5626 28.3633 23.8243 29.625 25.3751 29.625C26.9259 29.625 28.1876 28.3633 28.1876 26.8125C28.1876 25.2617 26.9258 24 25.375 24ZM29.5143 9L26.2929 20.25H11.1097L8.33956 9H29.5143ZM15.0625 26.8125C15.0625 27.3294 14.6419 27.75 14.125 27.75C13.6081 27.75 13.1875 27.3294 13.1875 26.8125C13.1875 26.2956 13.6081 25.875 14.125 25.875C14.6419 25.875 15.0625 26.2956 15.0625 26.8125ZM25.375 27.75C24.8581 27.75 24.4375 27.3294 24.4375 26.8125C24.4375 26.2956 24.8581 25.875 25.375 25.875C25.8919 25.875 26.3125 26.2956 26.3125 26.8125C26.3125 27.3294 25.8919 27.75 25.375 27.75Z" fill="black"/>
</svg>
