<svg width="16" height="15" viewBox="0 0 16 15" fill="none" xmlns="http://www.w3.org/2000/svg">
<path d="M9.60323 0.477434C10.1706 0.31958 10.8398 0.257428 11.5212 0.38466C12.9275 0.647389 14.2718 1.69253 14.8952 4.01943C15.5391 6.42289 14.4116 8.72651 12.8845 10.5595C11.3472 12.4044 9.31876 13.8816 7.91475 14.6835L7.6667 14.2489L7.41866 14.6835C6.01465 13.8816 3.98614 12.4043 2.44893 10.5595C0.921802 8.72654 -0.205651 6.42284 0.438187 4.01943C1.06154 1.69261 2.40592 0.64744 3.81221 0.38466C4.49353 0.25744 5.16284 0.319612 5.73018 0.477434C6.29036 0.633363 6.78823 0.893253 7.11397 1.19814C7.35521 1.42406 7.53302 1.71799 7.6667 2.02724C7.80039 1.71797 7.97818 1.42407 8.21944 1.19814C8.54517 0.893217 9.043 0.633377 9.60323 0.477434ZM11.3376 1.36708C10.8278 1.27191 10.3144 1.31724 9.87178 1.44032C9.42249 1.56536 9.08167 1.76058 8.90303 1.92763C8.74215 2.0783 8.5929 2.34806 8.47237 2.72743C8.35485 3.09752 8.27979 3.52431 8.23311 3.93837C8.19 4.32092 8.1729 4.68116 8.1667 4.9579C8.16702 4.97314 8.16841 4.9881 8.16866 5.00282C8.17126 5.15567 8.17085 5.2811 8.16963 5.36904C8.16902 5.41299 8.16833 5.44844 8.16768 5.47255C8.16737 5.48415 8.16692 5.49336 8.1667 5.49989C8.1666 5.50297 8.16581 5.50584 8.16573 5.50771V5.51161L7.6667 5.49208L7.16768 5.51161V5.50771C7.16759 5.50584 7.1668 5.50296 7.1667 5.49989C7.16649 5.49336 7.16604 5.48415 7.16573 5.47255C7.16508 5.44844 7.16439 5.41298 7.16377 5.36904C7.16255 5.2811 7.16215 5.15567 7.16475 5.00282C7.165 4.98811 7.16541 4.97314 7.16573 4.9579C7.15953 4.68117 7.14341 4.32091 7.1003 3.93837C7.05361 3.52432 6.97856 3.09752 6.86104 2.72743C6.74051 2.34808 6.59125 2.07829 6.43037 1.92763C6.25171 1.7606 5.91084 1.56534 5.46162 1.44032C5.01906 1.31727 4.50558 1.27192 3.9958 1.36708C3.01907 1.54963 1.94192 2.27031 1.40401 4.27821C0.886635 6.20964 1.76499 8.17654 3.21748 9.91982C4.57185 11.5452 6.35473 12.8805 7.6667 13.6659C8.97869 12.8805 10.7615 11.5452 12.1159 9.91982C13.5685 8.17651 14.4468 6.20968 13.9294 4.27821C13.3915 2.27021 12.3144 1.54958 11.3376 1.36708Z" fill="#606060"/>
</svg>
